# xmcd
#
# Track frame offsets:
#	150
#	9774
#	24348
#	35969
#	50990
#	60547
#	72236
#	86939
#	101616
#	112957
#	133286
#	148902
#	165078
#
# Disc length: 2341 seconds
#
# Revision: 0
# Processed by: cddbd v1.4PL0 Copyright (c) Steve Scherf et al.
# Submitted via: dBpowerAMP V4.0
#
DISCID=b509230d
DTITLE=Moncho Alpuente - Moncho Alpuente Experience
DYEAR=2002
DGENRE=Blues
TTITLE0=Soy Ibero
TTITLE1=Roma No Paga A Los Traidores
TTITLE2=A Numancia
TTITLE3=Milonga Del Guadalete
TTITLE4=En La Plaza De Tarifa
TTITLE5=Los Cien Mil Hijos De San Luis
TTITLE6=Isabel Esta Triste
TTITLE7=Turbulento Fue El Siglo Que Termina
TTITLE8=Si Un Pobre Se Desmelena
TTITLE9=Se Quejaba Un Musulman
TTITLE10=El Gregagario De Kelme
TTITLE11=Como Cuida
TTITLE12=Las Cosas Van Cambiando
EXTD=
EXTT0=
EXTT1=
EXTT2=
EXTT3=
EXTT4=
EXTT5=
EXTT6=
EXTT7=
EXTT8=
EXTT9=
EXTT10=
EXTT11=
EXTT12=
PLAYORDER=
